<mxfile host="app.diagrams.net" modified="2023-10-11T23:45:07.462Z" agent="Mozilla/5.0 (Macintosh; Intel Mac OS X 10.15; rv:109.0) Gecko/20100101 Firefox/118.0" etag="KBAUyLL3YeRFeMBx5gBn" version="22.0.4" type="github">
  <diagram name="Page-1" id="2YBvvXClWsGukQMizWep">
    <mxGraphModel dx="795" dy="512" grid="1" gridSize="10" guides="1" tooltips="1" connect="1" arrows="1" fold="1" page="1" pageScale="1" pageWidth="850" pageHeight="1100" math="0" shadow="0">
      <root>
        <mxCell id="0" />
        <mxCell id="1" parent="0" />
        <mxCell id="aM9ryv3xv72pqoxQDRHE-1" value="&lt;div&gt;:User&lt;/div&gt;" style="shape=umlLifeline;perimeter=lifelinePerimeter;whiteSpace=wrap;html=1;container=0;dropTarget=0;collapsible=0;recursiveResize=0;outlineConnect=0;portConstraint=eastwest;newEdgeStyle={&quot;edgeStyle&quot;:&quot;elbowEdgeStyle&quot;,&quot;elbow&quot;:&quot;vertical&quot;,&quot;curved&quot;:0,&quot;rounded&quot;:0};" parent="1" vertex="1">
          <mxGeometry x="40" y="40" width="100" height="460" as="geometry" />
        </mxCell>
        <mxCell id="aM9ryv3xv72pqoxQDRHE-5" value=":UI" style="shape=umlLifeline;perimeter=lifelinePerimeter;whiteSpace=wrap;html=1;container=0;dropTarget=0;collapsible=0;recursiveResize=0;outlineConnect=0;portConstraint=eastwest;newEdgeStyle={&quot;edgeStyle&quot;:&quot;elbowEdgeStyle&quot;,&quot;elbow&quot;:&quot;vertical&quot;,&quot;curved&quot;:0,&quot;rounded&quot;:0};" parent="1" vertex="1">
          <mxGeometry x="220" y="40" width="100" height="460" as="geometry" />
        </mxCell>
        <mxCell id="aM9ryv3xv72pqoxQDRHE-7" value="&lt;div&gt;PHN&lt;/div&gt;" style="html=1;verticalAlign=bottom;endArrow=block;edgeStyle=elbowEdgeStyle;elbow=vertical;curved=0;rounded=0;" parent="1" target="aM9ryv3xv72pqoxQDRHE-5" edge="1">
          <mxGeometry x="0.0028" relative="1" as="geometry">
            <mxPoint x="90" y="120" as="sourcePoint" />
            <Array as="points">
              <mxPoint x="180" y="120" />
            </Array>
            <mxPoint as="offset" />
          </mxGeometry>
        </mxCell>
        <mxCell id="KsvOEjqw0wxe3_t2N8vl-1" value=":Auth" style="shape=umlLifeline;perimeter=lifelinePerimeter;whiteSpace=wrap;html=1;container=0;dropTarget=0;collapsible=0;recursiveResize=0;outlineConnect=0;portConstraint=eastwest;newEdgeStyle={&quot;edgeStyle&quot;:&quot;elbowEdgeStyle&quot;,&quot;elbow&quot;:&quot;vertical&quot;,&quot;curved&quot;:0,&quot;rounded&quot;:0};" vertex="1" parent="1">
          <mxGeometry x="400" y="40" width="100" height="460" as="geometry" />
        </mxCell>
        <mxCell id="KsvOEjqw0wxe3_t2N8vl-3" value=":DB" style="shape=umlLifeline;perimeter=lifelinePerimeter;whiteSpace=wrap;html=1;container=0;dropTarget=0;collapsible=0;recursiveResize=0;outlineConnect=0;portConstraint=eastwest;newEdgeStyle={&quot;edgeStyle&quot;:&quot;elbowEdgeStyle&quot;,&quot;elbow&quot;:&quot;vertical&quot;,&quot;curved&quot;:0,&quot;rounded&quot;:0};" vertex="1" parent="1">
          <mxGeometry x="580" y="40" width="100" height="460" as="geometry" />
        </mxCell>
        <mxCell id="KsvOEjqw0wxe3_t2N8vl-9" value="Passphrase" style="html=1;verticalAlign=bottom;endArrow=block;edgeStyle=elbowEdgeStyle;elbow=vertical;curved=0;rounded=0;" edge="1" parent="1" target="aM9ryv3xv72pqoxQDRHE-5">
          <mxGeometry x="0.0028" relative="1" as="geometry">
            <mxPoint x="90" y="140" as="sourcePoint" />
            <Array as="points">
              <mxPoint x="180" y="140" />
            </Array>
            <mxPoint x="265" y="140" as="targetPoint" />
            <mxPoint as="offset" />
          </mxGeometry>
        </mxCell>
        <mxCell id="KsvOEjqw0wxe3_t2N8vl-10" value="Authenticate" style="shape=umlFrame;whiteSpace=wrap;html=1;pointerEvents=0;width=100;height=30;" vertex="1" parent="1">
          <mxGeometry x="57.5" y="730" width="610" height="230" as="geometry" />
        </mxCell>
        <mxCell id="KsvOEjqw0wxe3_t2N8vl-11" value=":UI" style="shape=umlLifeline;perimeter=lifelinePerimeter;whiteSpace=wrap;html=1;container=0;dropTarget=0;collapsible=0;recursiveResize=0;outlineConnect=0;portConstraint=eastwest;newEdgeStyle={&quot;edgeStyle&quot;:&quot;elbowEdgeStyle&quot;,&quot;elbow&quot;:&quot;vertical&quot;,&quot;curved&quot;:0,&quot;rounded&quot;:0};" vertex="1" parent="1">
          <mxGeometry x="137.5" y="780" width="100" height="160" as="geometry" />
        </mxCell>
        <mxCell id="KsvOEjqw0wxe3_t2N8vl-12" value="" style="html=1;points=[[0,0,0,0,5],[0,1,0,0,-5],[1,0,0,0,5],[1,1,0,0,-5]];perimeter=orthogonalPerimeter;outlineConnect=0;targetShapes=umlLifeline;portConstraint=eastwest;newEdgeStyle={&quot;curved&quot;:0,&quot;rounded&quot;:0};" vertex="1" parent="KsvOEjqw0wxe3_t2N8vl-11">
          <mxGeometry x="45" y="100" width="10" height="30" as="geometry" />
        </mxCell>
        <mxCell id="KsvOEjqw0wxe3_t2N8vl-13" value=":Auth" style="shape=umlLifeline;perimeter=lifelinePerimeter;whiteSpace=wrap;html=1;container=0;dropTarget=0;collapsible=0;recursiveResize=0;outlineConnect=0;portConstraint=eastwest;newEdgeStyle={&quot;edgeStyle&quot;:&quot;elbowEdgeStyle&quot;,&quot;elbow&quot;:&quot;vertical&quot;,&quot;curved&quot;:0,&quot;rounded&quot;:0};" vertex="1" parent="1">
          <mxGeometry x="330" y="780" width="100" height="150" as="geometry" />
        </mxCell>
        <mxCell id="KsvOEjqw0wxe3_t2N8vl-14" value="" style="html=1;points=[[0,0,0,0,5],[0,1,0,0,-5],[1,0,0,0,5],[1,1,0,0,-5]];perimeter=orthogonalPerimeter;outlineConnect=0;targetShapes=umlLifeline;portConstraint=eastwest;newEdgeStyle={&quot;curved&quot;:0,&quot;rounded&quot;:0};" vertex="1" parent="KsvOEjqw0wxe3_t2N8vl-13">
          <mxGeometry x="45" y="70" width="10" height="30" as="geometry" />
        </mxCell>
        <mxCell id="KsvOEjqw0wxe3_t2N8vl-15" value=":DB" style="shape=umlLifeline;perimeter=lifelinePerimeter;whiteSpace=wrap;html=1;container=0;dropTarget=0;collapsible=0;recursiveResize=0;outlineConnect=0;portConstraint=eastwest;newEdgeStyle={&quot;edgeStyle&quot;:&quot;elbowEdgeStyle&quot;,&quot;elbow&quot;:&quot;vertical&quot;,&quot;curved&quot;:0,&quot;rounded&quot;:0};" vertex="1" parent="1">
          <mxGeometry x="522.5" y="780" width="100" height="160" as="geometry" />
        </mxCell>
        <mxCell id="KsvOEjqw0wxe3_t2N8vl-16" value="" style="html=1;points=[[0,0,0,0,5],[0,1,0,0,-5],[1,0,0,0,5],[1,1,0,0,-5]];perimeter=orthogonalPerimeter;outlineConnect=0;targetShapes=umlLifeline;portConstraint=eastwest;newEdgeStyle={&quot;curved&quot;:0,&quot;rounded&quot;:0};" vertex="1" parent="KsvOEjqw0wxe3_t2N8vl-15">
          <mxGeometry x="45" y="130" width="10" height="30" as="geometry" />
        </mxCell>
        <mxCell id="KsvOEjqw0wxe3_t2N8vl-17" value="PHN and Password" style="html=1;verticalAlign=bottom;endArrow=block;curved=0;rounded=0;" edge="1" parent="1" target="KsvOEjqw0wxe3_t2N8vl-13">
          <mxGeometry width="80" relative="1" as="geometry">
            <mxPoint x="187.5" y="850" as="sourcePoint" />
            <mxPoint x="267.5" y="850" as="targetPoint" />
          </mxGeometry>
        </mxCell>
        <mxCell id="KsvOEjqw0wxe3_t2N8vl-18" value="JWT Token and User Token" style="html=1;verticalAlign=bottom;endArrow=open;dashed=1;endSize=8;curved=0;rounded=0;" edge="1" parent="1" target="KsvOEjqw0wxe3_t2N8vl-11">
          <mxGeometry relative="1" as="geometry">
            <mxPoint x="377.5" y="880" as="sourcePoint" />
            <mxPoint x="297.5" y="880" as="targetPoint" />
          </mxGeometry>
        </mxCell>
        <mxCell id="KsvOEjqw0wxe3_t2N8vl-19" value="User token&amp;nbsp;" style="html=1;verticalAlign=bottom;endArrow=block;curved=0;rounded=0;" edge="1" parent="1" target="KsvOEjqw0wxe3_t2N8vl-15">
          <mxGeometry width="80" relative="1" as="geometry">
            <mxPoint x="187.5" y="910" as="sourcePoint" />
            <mxPoint x="267.5" y="910" as="targetPoint" />
          </mxGeometry>
        </mxCell>
        <mxCell id="KsvOEjqw0wxe3_t2N8vl-20" value="User profile data required for UI" style="html=1;verticalAlign=bottom;endArrow=open;dashed=1;endSize=8;curved=0;rounded=0;" edge="1" parent="1" target="KsvOEjqw0wxe3_t2N8vl-11">
          <mxGeometry relative="1" as="geometry">
            <mxPoint x="577.5" y="940" as="sourcePoint" />
            <mxPoint x="497.5" y="940" as="targetPoint" />
          </mxGeometry>
        </mxCell>
        <mxCell id="KsvOEjqw0wxe3_t2N8vl-21" value="Valid Authentication" style="shape=umlFrame;whiteSpace=wrap;html=1;pointerEvents=0;width=125;height=30;" vertex="1" parent="1">
          <mxGeometry x="40" y="160" width="640" height="370" as="geometry" />
        </mxCell>
        <mxCell id="KsvOEjqw0wxe3_t2N8vl-22" value="Invalid Authentication" style="shape=umlFrame;whiteSpace=wrap;html=1;pointerEvents=0;width=125;height=30;" vertex="1" parent="1">
          <mxGeometry x="40" y="530" width="640" height="70" as="geometry" />
        </mxCell>
        <mxCell id="KsvOEjqw0wxe3_t2N8vl-24" value="Authentication Request" style="html=1;verticalAlign=bottom;endArrow=block;edgeStyle=elbowEdgeStyle;elbow=vertical;curved=0;rounded=0;" edge="1" parent="1">
          <mxGeometry x="0.0028" relative="1" as="geometry">
            <mxPoint x="270" y="150" as="sourcePoint" />
            <Array as="points">
              <mxPoint x="360" y="150" />
            </Array>
            <mxPoint x="450" y="150" as="targetPoint" />
            <mxPoint as="offset" />
          </mxGeometry>
        </mxCell>
      </root>
    </mxGraphModel>
  </diagram>
</mxfile>
